<svg width="160" height="160" viewBox="0 0 160 160" fill="none" xmlns="http://www.w3.org/2000/svg">
  <rect width="160" height="160" rx="80" fill="#02040A"/>
  <circle cx="80" cy="80" r="76" stroke="#94A3B8" stroke-width="8"/>
  <path d="M114 60C114 78.2254 99.2254 93 81 93C62.7746 93 48 78.2254 48 60C48 41.7746 62.7746 27 81 27C99.2254 27 114 41.7746 114 60Z" fill="#8D5B43"/>
  <path d="M48 58C49.1012 35.2134 60.7286 23 81.5 23C98.8246 23 110.772 34.0852 113.046 53.7484C103.575 42.7984 95.8137 37 84.5 37C67.7058 37 57.0028 48.6246 48 58Z" fill="#111827"/>
  <path d="M43 136C48.6427 112.331 61.8094 99 81.5 99C101.191 99 114.357 112.331 120 136V140H43V136Z" fill="#D9E8FA"/>
  <rect x="96" y="64" width="27" height="43" rx="8" transform="rotate(19 96 64)" fill="#0F172A"/>
  <rect x="99" y="67" width="17" height="30" rx="5" transform="rotate(19 99 67)" fill="#1F2937"/>
  <path d="M67 75C74.5341 69.8439 81.8674 68.8072 89 75" stroke="#4B2E20" stroke-width="4" stroke-linecap="round"/>
  <circle cx="68" cy="60" r="3.5" fill="#02040A"/>
  <circle cx="92" cy="59" r="3.5" fill="#02040A"/>
  <path d="M57 34C66.8055 25.6376 76.8265 23 88.5 23C100.173 23 108.916 27.1489 114 39C104.473 35.2888 96.422 34.1958 87.5 37C75.7979 40.6772 67.5118 46.6206 57 34Z" fill="#111827"/>
</svg>
